<svg viewBox="0 0 72 72" fill="none" xmlns="http://www.w3.org/2000/svg">
<path d="M30.8042 63C31.3308 63.912 32.0882 64.6694 33.0003 65.196C33.9124 65.7225 34.947 65.9997 36.0002 65.9997C37.0534 65.9997 38.088 65.7225 39.0001 65.196C39.9122 64.6694 40.6696 63.912 41.1962 63" stroke="white" stroke-width="5" stroke-linecap="round" stroke-linejoin="round"/>
<path d="M41.7481 6.94195C39.0405 6.02957 36.1547 5.77482 33.3292 6.19878C30.5036 6.62274 27.8196 7.71323 25.4991 9.38007C23.1785 11.0469 21.2881 13.2422 19.9841 15.7844C18.6801 18.3267 18 21.1428 18.0001 24C18.0001 37.497 13.7671 41.8679 9.7801 45.9809C9.38882 46.411 9.13092 46.9454 9.03778 47.5193C8.94463 48.0932 9.02025 48.6818 9.25543 49.2135C9.49061 49.7452 9.87523 50.1971 10.3625 50.5143C10.8498 50.8314 11.4187 51.0002 12.0001 50.9999H60.0001C60.5815 51.0002 61.1504 50.8314 61.6377 50.5143C62.125 50.1971 62.5096 49.7452 62.7448 49.2135C62.9799 48.6818 63.0556 48.0932 62.9624 47.5193C62.8693 46.9454 62.6114 46.411 62.2201 45.9809C61.6027 45.3452 61.017 44.6793 60.4651 43.9859" stroke="white" stroke-width="5" stroke-linecap="round" stroke-linejoin="round"/>
<path d="M54 33C58.9706 33 63 28.9706 63 24C63 19.0294 58.9706 15 54 15C49.0294 15 45 19.0294 45 24C45 28.9706 49.0294 33 54 33Z" fill="#ED3434" stroke="#ED3434" stroke-width="4" stroke-linecap="round" stroke-linejoin="round"/>
</svg>