<svg viewBox="0 0 72 72" fill="none" xmlns="http://www.w3.org/2000/svg">
<path d="M30.8042 63C31.3308 63.912 32.0882 64.6694 33.0003 65.196C33.9124 65.7225 34.947 65.9997 36.0002 65.9997C37.0534 65.9997 38.088 65.7225 39.0001 65.196C39.9122 64.6694 40.6696 63.912 41.1962 63" stroke="white" stroke-width="5" stroke-linecap="round" stroke-linejoin="round"/>
<path d="M51.0001 50.9999H12.0001C11.4187 51.0001 10.8498 50.8314 10.3625 50.5142C9.87523 50.1971 9.49061 49.7452 9.25543 49.2135C9.02025 48.6818 8.94463 48.0932 9.03778 47.5193C9.13092 46.9454 9.38882 46.411 9.7801 45.9809C13.7701 41.8679 18.0001 37.4969 18.0001 23.9999C17.9997 22.2293 18.2605 20.4684 18.7741 18.7739" stroke="white" stroke-width="5" stroke-linecap="round" stroke-linejoin="round"/>
<path d="M6 6L66 66" stroke="white" stroke-width="5" stroke-linecap="round" stroke-linejoin="round"/>
<path d="M26.0039 9.03021C28.7144 7.22026 31.8654 6.1802 35.1207 6.021C38.376 5.86181 41.6135 6.58946 44.4876 8.12631C47.3617 9.66315 49.7647 11.9515 51.4399 14.7472C53.1152 17.5429 54 20.741 53.9999 24.0002C53.9999 32.0612 56.3099 37.9592 59.1209 42.1502" stroke="white" stroke-width="5" stroke-linecap="round" stroke-linejoin="round"/>
</svg>
