<svg viewBox="0 0 72 72" fill="none" xmlns="http://www.w3.org/2000/svg">
<path d="M30.8038 63C31.3304 63.912 32.0878 64.6694 32.9999 65.196C33.912 65.7225 34.9466 65.9997 35.9998 65.9997C37.0529 65.9997 38.0875 65.7225 38.9996 65.196C39.9117 64.6694 40.6691 63.912 41.1958 63M9.78576 45.978C9.39385 46.4075 9.13522 46.9417 9.04133 47.5156C8.94743 48.0894 9.02232 48.6781 9.25688 49.2102C9.49144 49.7422 9.87557 50.1947 10.3625 50.5124C10.8495 50.8302 11.4183 50.9996 11.9998 51H59.9998C60.5812 51.0002 61.1501 50.8315 61.6374 50.5143C62.1246 50.1972 62.5092 49.7452 62.7444 49.2135C62.9796 48.6818 63.0552 48.0933 62.9621 47.5194C62.8689 46.9455 62.611 46.411 62.2198 45.981C58.2298 41.868 53.9998 37.497 53.9998 24C53.9998 19.2261 52.1033 14.6477 48.7277 11.2721C45.352 7.89642 40.7737 6 35.9998 6C31.2259 6 26.6475 7.89642 23.2718 11.2721C19.8962 14.6477 17.9998 19.2261 17.9998 24C17.9998 37.497 13.7668 41.868 9.78576 45.978Z" stroke="white" stroke-width="5" stroke-linecap="round" stroke-linejoin="round"/>
</svg>