<svg viewBox="0 0 72 72" fill="none" xmlns="http://www.w3.org/2000/svg">
<path d="M18 45V39M36 45V27M36 27C40.9706 27 45 22.9706 45 18C45 13.0294 40.9706 9 36 9C31.0294 9 27 13.0294 27 18C27 22.9706 31.0294 27 36 27ZM63 51C63 49.4087 62.3679 47.8826 61.2426 46.7574C60.1174 45.6321 58.5913 45 57 45H15C13.4087 45 11.8826 45.6321 10.7574 46.7574C9.63214 47.8826 9 49.4087 9 51V57C9 58.5913 9.63214 60.1174 10.7574 61.2426C11.8826 62.3679 13.4087 63 15 63H57C58.5913 63 60.1174 62.3679 61.2426 61.2426C62.3679 60.1174 63 58.5913 63 57V51Z" stroke="white" stroke-width="5" stroke-linecap="round" stroke-linejoin="round"/>
</svg>
