<svg viewBox="0 0 72 72" fill="none" xmlns="http://www.w3.org/2000/svg">
<path d="M60 60C61.5913 60 63.1174 59.3679 64.2426 58.2426C65.3679 57.1174 66 55.5913 66 54V24C66 22.4087 65.3679 20.8826 64.2426 19.7574C63.1174 18.6321 61.5913 18 60 18H36.3C35.2965 18.0098 34.3066 17.7678 33.4209 17.2961C32.5352 16.8244 31.7819 16.1381 31.23 15.3L28.8 11.7C28.2537 10.8704 27.5099 10.1894 26.6355 9.71819C25.7611 9.24694 24.7833 9.00016 23.79 9H12C10.4087 9 8.88258 9.63214 7.75736 10.7574C6.63214 11.8826 6 13.4087 6 15V54C6 55.5913 6.63214 57.1174 7.75736 58.2426C8.88258 59.3679 10.4087 60 12 60H60Z" stroke="white" stroke-width="5" stroke-linecap="round" stroke-linejoin="round"/>
</svg>
