<svg viewBox="0 0 72 72" fill="none" xmlns="http://www.w3.org/2000/svg">
<path d="M48 30C48 31.5913 47.3679 33.1174 46.2426 34.2426C45.1174 35.3679 43.5913 36 42 36H20.484C18.8928 36.0003 17.367 36.6327 16.242 37.758L9.636 44.364C9.33811 44.6618 8.95861 44.8646 8.54547 44.9468C8.13232 45.029 7.70409 44.9868 7.31492 44.8256C6.92575 44.6644 6.59311 44.3914 6.35906 44.0412C6.12501 43.691 6.00005 43.2792 6 42.858V12C6 10.4087 6.63214 8.88258 7.75736 7.75736C8.88258 6.63214 10.4087 6 12 6H42C43.5913 6 45.1174 6.63214 46.2426 7.75736C47.3679 8.88258 48 10.4087 48 12V30Z" stroke="white" stroke-width="5" stroke-linecap="round" stroke-linejoin="round"/>
<path d="M60 27C61.5913 27 63.1174 27.6321 64.2426 28.7574C65.3679 29.8826 66 31.4087 66 33V63.858C65.9999 64.2792 65.875 64.691 65.6409 65.0412C65.4069 65.3914 65.0743 65.6644 64.6851 65.8256C64.2959 65.9868 63.8677 66.029 63.4545 65.9468C63.0414 65.8646 62.6619 65.6618 62.364 65.364L55.758 58.758C54.633 57.6327 53.1072 57.0003 51.516 57H30C28.4087 57 26.8826 56.3679 25.7574 55.2426C24.6321 54.1174 24 52.5913 24 51V48" stroke="white" stroke-width="5" stroke-linecap="round" stroke-linejoin="round"/>
</svg>
