<svg viewBox="0 0 26 26" fill="none" xmlns="http://www.w3.org/2000/svg">
<path d="M4.13281 6.90658C4.13281 6.56625 4.22686 6.23212 4.40518 5.93888C4.5835 5.64564 4.83961 5.40399 5.1469 5.239C5.4542 5.07402 5.80148 4.99172 6.1527 5.00066C6.50392 5.00959 6.84626 5.10943 7.1442 5.2898L17.2077 11.3832C17.4908 11.5546 17.7243 11.7929 17.8861 12.0757C18.0479 12.3586 18.1328 12.6766 18.1328 13C18.1328 13.3234 18.0479 13.6414 17.8861 13.9243C17.7243 14.2071 17.4908 14.4454 17.2077 14.6168L7.1442 20.7102C6.84626 20.8906 6.50392 20.9904 6.1527 20.9993C5.80148 21.0083 5.4542 20.926 5.1469 20.761C4.83961 20.596 4.5835 20.3544 4.40518 20.0611C4.22686 19.7679 4.13281 19.4338 4.13281 19.0934V6.90658Z" fill="white"/>
<path d="M22 6V20" stroke="white" stroke-width="1.2" stroke-linecap="round" stroke-linejoin="round"/>
</svg>
