<svg viewBox="0 0 26 26" fill="none" xmlns="http://www.w3.org/2000/svg">
<path d="M6 7.07973C6.00018 6.70701 6.10447 6.34118 6.30196 6.02047C6.49946 5.69976 6.78292 5.43596 7.1227 5.25664C7.46248 5.07732 7.84612 4.98906 8.2335 5.00108C8.62089 5.01311 8.99781 5.12499 9.32485 5.32502L18.9979 11.2439C19.305 11.4318 19.5578 11.6912 19.733 11.998C19.9082 12.3049 20 12.6493 20 12.9993C20 13.3493 19.9082 13.6937 19.733 14.0006C19.5578 14.3074 19.305 14.5668 18.9979 14.7547L9.32485 20.675C8.9977 20.8751 8.62065 20.987 8.23314 20.9989C7.84563 21.0109 7.46189 20.9225 7.12207 20.743C6.78224 20.5635 6.49881 20.2995 6.30141 19.9786C6.10402 19.6577 5.99992 19.2917 6 18.9189V7.07973Z" fill="white"/>
</svg>
