<svg viewBox="0 0 26 26" fill="none" xmlns="http://www.w3.org/2000/svg">
<path d="M8.82317 5C8.60485 5 8.39548 5.07024 8.2411 5.19526C8.08673 5.32029 8 5.48986 8 5.66667V20.3333C8 20.5101 8.08673 20.6797 8.2411 20.8047C8.39548 20.9298 8.60485 21 8.82317 21H9.4939C9.71222 21 9.9216 20.9298 10.076 20.8047C10.2303 20.6797 10.3171 20.5101 10.3171 20.3333V5.66667C10.3171 5.48986 10.2303 5.32029 10.076 5.19526C9.9216 5.07024 9.71222 5 9.4939 5H8.82317Z" fill="white"/>
<path d="M15.924 5.19526C16.0784 5.07024 16.2878 5 16.5061 5H17.1768C17.3951 5 17.6045 5.07024 17.7589 5.19526C17.9133 5.32029 18 5.48986 18 5.66667V20.3333C18 20.5101 17.9133 20.6797 17.7589 20.8047C17.6045 20.9298 17.3951 21 17.1768 21H16.5061C16.2878 21 16.0784 20.9298 15.924 20.8047C15.7697 20.6797 15.6829 20.5101 15.6829 20.3333V5.66667C15.6829 5.48986 15.7697 5.32029 15.924 5.19526Z" fill="white"/>
</svg>
