<svg viewBox="0 0 26 26" fill="none" xmlns="http://www.w3.org/2000/svg">
<path d="M21.8672 6.90658C21.8672 6.56625 21.7731 6.23212 21.5948 5.93888C21.4165 5.64564 21.1604 5.40399 20.8531 5.239C20.5458 5.07402 20.1985 4.99172 19.8473 5.00066C19.4961 5.00959 19.1537 5.10943 18.8558 5.2898L8.79226 11.3832C8.50918 11.5546 8.27575 11.7929 8.11392 12.0757C7.95209 12.3586 7.86719 12.6766 7.86719 13C7.86719 13.3234 7.95209 13.6414 8.11392 13.9243C8.27575 14.2071 8.50918 14.4454 8.79226 14.6168L18.8558 20.7102C19.1537 20.8906 19.4961 20.9904 19.8473 20.9993C20.1985 21.0083 20.5458 20.926 20.8531 20.761C21.1604 20.596 21.4165 20.3544 21.5948 20.0611C21.7731 19.7679 21.8672 19.4338 21.8672 19.0934V6.90658Z" fill="white"/>
<path d="M4 6V20" stroke="white" stroke-width="1.2" stroke-linecap="round" stroke-linejoin="round"/>
</svg>
