<svg viewBox="0 0 72 72" fill="none" xmlns="http://www.w3.org/2000/svg">
<path d="M43 14.1061C42.9994 13.6882 42.875 13.2799 42.6426 12.9327C42.4101 12.5854 42.0801 12.3148 41.694 12.155C41.3079 11.9951 40.8831 11.9533 40.4732 12.0346C40.0634 12.116 39.6868 12.3169 39.391 12.6121L29.239 22.7611C28.8472 23.1552 28.3811 23.4677 27.8677 23.6804C27.3543 23.893 26.8037 24.0017 26.248 24.0001H19C18.2044 24.0001 17.4413 24.3162 16.8787 24.8788C16.3161 25.4414 16 26.2044 16 27.0001V45.0001C16 45.7957 16.3161 46.5588 16.8787 47.1214C17.4413 47.684 18.2044 48.0001 19 48.0001H26.248C26.8037 47.9985 27.3543 48.1071 27.8677 48.3198C28.3811 48.5325 28.8472 48.845 29.239 49.2391L39.388 59.3911C39.6838 59.6875 40.0609 59.8894 40.4716 59.9712C40.8822 60.0531 41.3079 60.0112 41.6948 59.8509C42.0816 59.6905 42.4121 59.419 42.6445 59.0707C42.8769 58.7223 43.0006 58.3128 43 57.8941V14.1061Z" stroke="white" stroke-width="5" stroke-linecap="round" stroke-linejoin="round"/>
<path d="M52 27C53.9473 29.5964 55 32.7544 55 36C55 39.2456 53.9473 42.4036 52 45" stroke="white" stroke-width="5" stroke-linecap="round" stroke-linejoin="round"/>
</svg>
