<svg viewBox="0 0 72 72" fill="none" xmlns="http://www.w3.org/2000/svg">
<path d="M37 14.1061C36.9994 13.6882 36.875 13.2799 36.6426 12.9327C36.4101 12.5854 36.0801 12.3148 35.694 12.155C35.3079 11.9951 34.8831 11.9533 34.4732 12.0346C34.0634 12.116 33.6868 12.3169 33.391 12.6121L23.239 22.7611C22.8472 23.1552 22.3811 23.4677 21.8677 23.6804C21.3543 23.893 20.8037 24.0017 20.248 24.0001H13C12.2044 24.0001 11.4413 24.3162 10.8787 24.8788C10.3161 25.4414 10 26.2044 10 27.0001V45.0001C10 45.7957 10.3161 46.5588 10.8787 47.1214C11.4413 47.684 12.2044 48.0001 13 48.0001H20.248C20.8037 47.9985 21.3543 48.1071 21.8677 48.3198C22.3811 48.5325 22.8472 48.845 23.239 49.2391L33.388 59.3911C33.6838 59.6875 34.0609 59.8894 34.4716 59.9712C34.8822 60.0531 35.3079 60.0112 35.6948 59.8509C36.0816 59.6905 36.4121 59.419 36.6445 59.0707C36.8769 58.7223 37.0006 58.3128 37 57.8941V14.1061Z" stroke="white" stroke-width="5" stroke-linecap="round" stroke-linejoin="round"/>
<path d="M46 27C47.9473 29.5964 49 32.7544 49 36C49 39.2456 47.9473 42.4036 46 45" stroke="white" stroke-width="5" stroke-linecap="round" stroke-linejoin="round"/>
<path d="M53.0913 55.0922C55.5985 52.585 57.5874 49.6085 58.9443 46.3327C60.3012 43.0569 60.9995 39.5459 60.9995 36.0002C60.9995 32.4545 60.3012 28.9435 58.9443 25.6677C57.5874 22.3919 55.5985 19.4154 53.0913 16.9082" stroke="white" stroke-width="5" stroke-linecap="round" stroke-linejoin="round"/>
</svg>
