<svg viewBox="0 0 72 72" fill="none" xmlns="http://www.w3.org/2000/svg">
<path d="M49 14.1061C48.9994 13.6882 48.875 13.2799 48.6426 12.9327C48.4101 12.5854 48.0801 12.3148 47.694 12.155C47.3079 11.9951 46.8831 11.9533 46.4732 12.0346C46.0634 12.116 45.6868 12.3169 45.391 12.6121L35.239 22.7611C34.8472 23.1552 34.3811 23.4677 33.8677 23.6804C33.3543 23.893 32.8037 24.0017 32.248 24.0001H25C24.2044 24.0001 23.4413 24.3162 22.8787 24.8788C22.3161 25.4414 22 26.2044 22 27.0001V45.0001C22 45.7957 22.3161 46.5588 22.8787 47.1214C23.4413 47.684 24.2044 48.0001 25 48.0001H32.248C32.8037 47.9985 33.3543 48.1071 33.8677 48.3198C34.3811 48.5325 34.8472 48.845 35.239 49.2391L45.388 59.3911C45.6838 59.6875 46.0609 59.8894 46.4716 59.9712C46.8822 60.0531 47.3079 60.0112 47.6948 59.8509C48.0816 59.6905 48.4121 59.419 48.6445 59.0707C48.8769 58.7223 49.0006 58.3128 49 57.8941V14.1061Z" stroke="white" stroke-width="5" stroke-linecap="round" stroke-linejoin="round"/>
</svg>
