<svg viewBox="0 0 72 72" fill="none" xmlns="http://www.w3.org/2000/svg">
<path d="M35 14.1061C34.9994 13.6882 34.875 13.2799 34.6426 12.9327C34.4101 12.5854 34.0801 12.3148 33.694 12.155C33.3079 11.9951 32.8831 11.9533 32.4732 12.0346C32.0634 12.116 31.6868 12.3169 31.391 12.6121L21.239 22.7611C20.8472 23.1552 20.3811 23.4677 19.8677 23.6804C19.3543 23.893 18.8037 24.0017 18.248 24.0001H11C10.2044 24.0001 9.44129 24.3162 8.87868 24.8788C8.31607 25.4414 8 26.2044 8 27.0001V45.0001C8 45.7957 8.31607 46.5588 8.87868 47.1214C9.44129 47.684 10.2044 48.0001 11 48.0001H18.248C18.8037 47.9985 19.3543 48.1071 19.8677 48.3198C20.3811 48.5325 20.8472 48.845 21.239 49.2391L31.388 59.3911C31.6838 59.6875 32.0609 59.8894 32.4716 59.9712C32.8822 60.0531 33.3079 60.0112 33.6948 59.8509C34.0816 59.6905 34.4121 59.419 34.6445 59.0707C34.8769 58.7223 35.0006 58.3128 35 57.8941V14.1061Z" stroke="white" stroke-width="5" stroke-linecap="round" stroke-linejoin="round"/>
<path d="M63 27L45 45" stroke="white" stroke-width="5" stroke-linecap="round" stroke-linejoin="round"/>
<path d="M45 27L63 45" stroke="white" stroke-width="5" stroke-linecap="round" stroke-linejoin="round"/>
</svg>
