<svg viewBox="0 0 72 72" fill="none" xmlns="http://www.w3.org/2000/svg">
<path d="M66 42V30" stroke="white" stroke-width="2.5" stroke-linecap="round" stroke-linejoin="round"/>
<path d="M53.25 21H12.75C9.02208 21 6 23.2386 6 26V45.9999C6 48.7614 9.02208 51 12.75 51H53.25C56.9778 51 60 48.7614 60 45.9999V26C60 23.2386 56.9778 21 53.25 21Z" stroke="white" stroke-width="2.5" stroke-linecap="round" stroke-linejoin="round"/>
<path d="M44.1006 45.3027V26.6975C44.1006 26.0348 43.5633 25.5 42.9006 25.5H12.3006C11.6378 25.5 11.1006 26.0348 11.1006 26.6975V45.3027C11.1006 45.9654 11.6378 46.5 12.3006 46.5H42.9006C43.5633 46.5 44.1006 45.9654 44.1006 45.3027Z" fill="white" stroke="white" stroke-linecap="round" stroke-linejoin="round"/>
</svg>
