<svg viewBox="0 0 72 72" fill="none" xmlns="http://www.w3.org/2000/svg">
<path d="M66 42V30" stroke="white" stroke-width="2.5" stroke-linecap="round" stroke-linejoin="round"/>
<path d="M32.0615 19.9287L30.5596 22.25H12.75C11.1267 22.25 9.70604 22.7389 8.7207 23.4688C7.73527 24.1988 7.25 25.1077 7.25 26V46C7.25004 46.8923 7.7353 47.8013 8.7207 48.5312C9.70604 49.2611 11.1268 49.75 12.75 49.75H28.5908C28.5227 50.2286 28.5474 50.7356 28.6865 51.2217C28.7792 51.545 28.9385 51.9073 29.1895 52.25H12.75C10.6455 52.25 8.69105 51.6197 7.2334 50.54C5.77595 49.4604 4.75004 47.8691 4.75 46V26C4.75 24.1309 5.77593 22.5396 7.2334 21.46C8.69105 20.3803 10.6455 19.75 12.75 19.75H32.1836C32.1396 19.81 32.0988 19.8696 32.0615 19.9287ZM53.25 19.75C55.3545 19.75 57.3089 20.3803 58.7666 21.46C60.2241 22.5396 61.25 24.1309 61.25 26V46C61.25 47.8691 60.2241 49.4604 58.7666 50.54C57.3089 51.6197 55.3545 52.25 53.25 52.25H33.8066C33.8246 52.2255 33.8435 52.2021 33.8604 52.1777C33.8876 52.1439 33.9146 52.1091 33.9385 52.0723L35.4404 49.75H53.25C54.8732 49.75 56.2939 49.2612 57.2793 48.5312C58.2647 47.8012 58.75 46.8923 58.75 46V26C58.75 25.1077 58.2647 24.1988 57.2793 23.4688C56.2939 22.7389 54.8732 22.25 53.25 22.25H37.4082C37.458 21.8994 37.4585 21.5376 37.4014 21.1826L37.3887 21.1172L37.333 20.8594L37.2871 20.6992L37.1963 20.4473L37.1689 20.3799L37.0732 20.1748C37.0008 20.0332 36.9133 19.8905 36.8105 19.75H53.25Z" fill="white"/>
<path d="M22.165 35.2246L22.1299 35.2832L22.083 35.3652L22.0684 35.3916C21.7679 35.9478 21.6101 36.5534 21.5645 37.1328C21.519 37.7125 21.5799 38.3172 21.7627 38.8906C21.9425 39.4544 22.2649 40.0604 22.7891 40.5537L22.7881 40.5547C23.3239 41.059 24.0893 41.4482 25.002 41.4473L30.3457 41.4482L29.165 47H11.6768C11.2167 46.9999 10.9456 46.6287 10.8193 46.3662C10.6762 46.0683 10.6016 45.6919 10.6016 45.3027V26.6973C10.6016 26.3081 10.6762 25.9317 10.8193 25.6338C10.9456 25.3713 11.2166 25.0001 11.6768 25H28.7803L22.165 35.2246Z" fill="#37C957"/>
<path d="M34.4228 21.0008C34.4621 20.9975 34.5049 21.0041 34.5526 21.0233L34.6591 21.0907L34.7323 21.1619C34.7615 21.1999 34.7896 21.2449 34.8134 21.2977L34.8573 21.4178L34.8837 21.5438C34.8959 21.6277 34.8997 21.7146 34.8915 21.7996L34.8788 21.8895L34.8769 21.8973L34.871 21.9246L32.9608 30.9139L32.9599 30.9149L32.9521 30.9559C32.9015 31.1793 32.8859 31.4145 32.9052 31.6424C32.9237 31.8619 32.9748 32.0403 33.0194 32.1668C33.1959 32.6664 33.6683 33.0008 34.1981 33.0008H40.9501C41.0731 33.0008 41.1906 33.0373 41.3026 33.1062L41.4472 33.2205L41.5712 33.3582C41.6686 33.4876 41.7494 33.645 41.8046 33.8182L41.8554 34.0096C41.8965 34.2056 41.9097 34.4142 41.8935 34.6209C41.8772 34.8267 41.8312 35.0246 41.7606 35.201L41.6825 35.3699L41.6815 35.3719C41.6802 35.3743 41.6779 35.3765 41.6767 35.3787L31.8319 50.5955L31.7733 50.6805C31.6994 50.7997 31.6125 50.864 31.5282 50.8875C31.4358 50.9125 31.338 50.8924 31.2489 50.8211C31.181 50.7666 31.121 50.6855 31.078 50.5867L31.0399 50.4822C30.9991 50.3393 30.9916 50.1713 31.0214 50.0086L31.0204 50.0076L32.9394 40.9852V40.9832L32.9481 40.9422C32.9532 40.9183 32.9572 40.8941 32.9608 40.8699L32.9843 40.7146C32.9888 40.6849 32.9927 40.6548 32.995 40.6248C33.0036 40.5143 33.0054 40.3895 32.994 40.2557C32.9755 40.0364 32.9254 39.8576 32.8808 39.7312C32.7154 39.263 32.2896 38.9399 31.8007 38.9012L31.7021 38.8973H24.9501C24.7764 38.8975 24.6029 38.8252 24.4521 38.6834L24.3437 38.5643C24.2408 38.4336 24.1547 38.2683 24.0946 38.0799C24.0156 37.8318 23.9852 37.5535 24.0067 37.2781C24.023 37.0722 24.0682 36.8743 24.1386 36.698L24.2177 36.5291L24.2362 36.4969L34.1103 21.2362C34.1147 21.2292 34.1196 21.2217 34.1239 21.2147C34.1907 21.1068 34.2743 21.0405 34.3642 21.0135L34.4228 21.0008Z" fill="white"/>
</svg>
